<svg width="29" height="27" viewBox="0 0 29 27" fill="none" xmlns="http://www.w3.org/2000/svg">
<path d="M27.8556 18.8401H8.60528L9.57184 16.8773L25.6316 16.8483C26.1747 16.8483 26.6402 16.4615 26.7372 15.9265L28.9612 3.51469C29.0194 3.18917 28.9321 2.85398 28.7188 2.59936C28.6133 2.47405 28.4818 2.37311 28.3333 2.30354C28.1848 2.23397 28.0229 2.19744 27.8589 2.19648L7.4286 2.1288L7.25404 1.31016C7.14413 0.78803 6.67217 0.407715 6.13555 0.407715H1.14112C0.838477 0.407715 0.548229 0.527581 0.334227 0.740946C0.120225 0.95431 0 1.24369 0 1.54544C0 1.84718 0.120225 2.13656 0.334227 2.34993C0.548229 2.56329 0.838477 2.68316 1.14112 2.68316H5.21101L5.97392 6.29937L7.85208 15.3657L5.43407 19.301C5.30849 19.47 5.23286 19.6706 5.21572 19.8802C5.19858 20.0898 5.24062 20.3 5.33709 20.487C5.53104 20.8706 5.92219 21.1123 6.35537 21.1123H8.38546C7.95267 21.6854 7.71891 22.3835 7.71954 23.1009C7.71954 24.9251 9.20655 26.4077 11.0362 26.4077C12.8659 26.4077 14.3529 24.9251 14.3529 23.1009C14.3529 22.3822 14.1137 21.6828 13.687 21.1123H18.8948C18.462 21.6854 18.2282 22.3835 18.2288 23.1009C18.2288 24.9251 19.7159 26.4077 21.5455 26.4077C23.3752 26.4077 24.8622 24.9251 24.8622 23.1009C24.8622 22.3822 24.623 21.6828 24.1963 21.1123H27.8589C28.486 21.1123 29 20.6031 29 19.9746C28.9981 19.6732 28.8768 19.3847 28.6624 19.1722C28.448 18.9596 28.158 18.8403 27.8556 18.8401ZM7.9038 4.37201L26.5173 4.43325L24.6941 14.6115L10.0729 14.6373L7.9038 4.37201ZM11.0362 24.1194C10.4737 24.1194 10.0147 23.6617 10.0147 23.1009C10.0147 22.5401 10.4737 22.0824 11.0362 22.0824C11.5987 22.0824 12.0577 22.5401 12.0577 23.1009C12.0577 23.371 11.9501 23.6301 11.7585 23.8211C11.567 24.0121 11.3071 24.1194 11.0362 24.1194ZM21.5455 24.1194C20.9831 24.1194 20.524 23.6617 20.524 23.1009C20.524 22.5401 20.9831 22.0824 21.5455 22.0824C22.108 22.0824 22.567 22.5401 22.567 23.1009C22.567 23.371 22.4594 23.6301 22.2679 23.8211C22.0763 24.0121 21.8165 24.1194 21.5455 24.1194Z" fill="white"/>
</svg>
