<svg width="63" height="87" viewBox="0 0 63 87" fill="none" xmlns="http://www.w3.org/2000/svg">
<path d="M4.672 81.112C3.936 81.112 3.28533 80.984 2.72 80.728C2.16533 80.472 1.728 80.1147 1.408 79.656C1.088 79.1973 0.917333 78.6853 0.896 78.12H2.08C2.13333 78.664 2.37333 79.144 2.8 79.56C3.22667 79.9653 3.85067 80.168 4.672 80.168C5.42933 80.168 6.02667 79.976 6.464 79.592C6.912 79.1973 7.136 78.7013 7.136 78.104C7.136 77.624 7.01333 77.24 6.768 76.952C6.52267 76.6533 6.21867 76.4347 5.856 76.296C5.49333 76.1467 4.992 75.9867 4.352 75.816C3.60533 75.6133 3.01333 75.416 2.576 75.224C2.13867 75.032 1.76533 74.7333 1.456 74.328C1.14667 73.9227 0.992 73.3733 0.992 72.68C0.992 72.104 1.14133 71.592 1.44 71.144C1.73867 70.6853 2.16 70.328 2.704 70.072C3.248 69.816 3.872 69.688 4.576 69.688C5.61067 69.688 6.44267 69.944 7.072 70.456C7.712 70.9573 8.08 71.608 8.176 72.408H6.96C6.88533 71.9493 6.63467 71.544 6.208 71.192C5.78133 70.8293 5.20533 70.648 4.48 70.648C3.808 70.648 3.248 70.8293 2.8 71.192C2.352 71.544 2.128 72.0293 2.128 72.648C2.128 73.1173 2.25067 73.496 2.496 73.784C2.74133 74.072 3.04533 74.2907 3.408 74.44C3.78133 74.5893 4.28267 74.7493 4.912 74.92C5.63733 75.1227 6.224 75.3253 6.672 75.528C7.12 75.72 7.49867 76.0187 7.808 76.424C8.11733 76.8293 8.272 77.3733 8.272 78.056C8.272 78.5787 8.13333 79.0747 7.856 79.544C7.57867 80.0133 7.168 80.392 6.624 80.68C6.08 80.968 5.42933 81.112 4.672 81.112ZM18.0043 72.264V81H16.8843V79.464C16.6283 80.008 16.2336 80.424 15.7003 80.712C15.1669 81 14.5696 81.144 13.9083 81.144C12.8629 81.144 12.0096 80.824 11.3483 80.184C10.6869 79.5333 10.3563 78.5947 10.3563 77.368V72.264H11.4603V77.24C11.4603 78.1893 11.6949 78.9147 12.1643 79.416C12.6443 79.9173 13.2949 80.168 14.1163 80.168C14.9589 80.168 15.6309 79.9013 16.1323 79.368C16.6336 78.8347 16.8843 78.0507 16.8843 77.016V72.264H18.0043ZM21.6653 74.184C21.9426 73.5973 22.3799 73.112 22.9773 72.728C23.5853 72.3333 24.3053 72.136 25.1373 72.136C25.9266 72.136 26.6359 72.3227 27.2653 72.696C27.9053 73.0587 28.4013 73.5813 28.7533 74.264C29.1159 74.936 29.2973 75.72 29.2973 76.616C29.2973 77.512 29.1159 78.3013 28.7533 78.984C28.4013 79.6667 27.9053 80.1947 27.2653 80.568C26.6359 80.9413 25.9266 81.128 25.1373 81.128C24.3159 81.128 23.6013 80.936 22.9933 80.552C22.3853 80.1573 21.9426 79.6667 21.6653 79.08V85.128H20.5613V72.264H21.6653V74.184ZM28.1613 76.616C28.1613 75.8907 28.0173 75.2667 27.7292 74.744C27.4519 74.2107 27.0679 73.8053 26.5773 73.528C26.0866 73.2507 25.5319 73.112 24.9133 73.112C24.3159 73.112 23.7666 73.256 23.2653 73.544C22.7746 73.832 22.3853 74.2427 22.0973 74.776C21.8093 75.3093 21.6653 75.928 21.6653 76.632C21.6653 77.336 21.8093 77.9547 22.0973 78.488C22.3853 79.0213 22.7746 79.432 23.2653 79.72C23.7666 80.008 24.3159 80.152 24.9133 80.152C25.5319 80.152 26.0866 80.0133 26.5773 79.736C27.0679 79.448 27.4519 79.0373 27.7292 78.504C28.0173 77.96 28.1613 77.3307 28.1613 76.616ZM32.4621 74.184C32.7395 73.5973 33.1768 73.112 33.7741 72.728C34.3821 72.3333 35.1021 72.136 35.9341 72.136C36.7235 72.136 37.4328 72.3227 38.0621 72.696C38.7021 73.0587 39.1981 73.5813 39.5501 74.264C39.9128 74.936 40.0941 75.72 40.0941 76.616C40.0941 77.512 39.9128 78.3013 39.5501 78.984C39.1981 79.6667 38.7021 80.1947 38.0621 80.568C37.4328 80.9413 36.7235 81.128 35.9341 81.128C35.1128 81.128 34.3981 80.936 33.7901 80.552C33.1821 80.1573 32.7395 79.6667 32.4621 79.08V85.128H31.3581V72.264H32.4621V74.184ZM38.9581 76.616C38.9581 75.8907 38.8141 75.2667 38.5261 74.744C38.2488 74.2107 37.8648 73.8053 37.3741 73.528C36.8835 73.2507 36.3288 73.112 35.7101 73.112C35.1128 73.112 34.5635 73.256 34.0621 73.544C33.5715 73.832 33.1821 74.2427 32.8941 74.776C32.6061 75.3093 32.4621 75.928 32.4621 76.632C32.4621 77.336 32.6061 77.9547 32.8941 78.488C33.1821 79.0213 33.5715 79.432 34.0621 79.72C34.5635 80.008 35.1128 80.152 35.7101 80.152C36.3288 80.152 36.8835 80.0133 37.3741 79.736C37.8648 79.448 38.2488 79.0373 38.5261 78.504C38.8141 77.96 38.9581 77.3307 38.9581 76.616ZM45.979 81.128C45.1577 81.128 44.4163 80.9467 43.755 80.584C43.1043 80.2107 42.587 79.688 42.203 79.016C41.8297 78.3333 41.643 77.5387 41.643 76.632C41.643 75.7253 41.835 74.936 42.219 74.264C42.603 73.5813 43.1257 73.0587 43.787 72.696C44.4483 72.3227 45.1897 72.136 46.011 72.136C46.8323 72.136 47.5737 72.3227 48.235 72.696C48.907 73.0587 49.4297 73.5813 49.803 74.264C50.187 74.936 50.379 75.7253 50.379 76.632C50.379 77.528 50.187 78.3173 49.803 79C49.419 79.6827 48.891 80.2107 48.219 80.584C47.547 80.9467 46.8003 81.128 45.979 81.128ZM45.979 80.152C46.555 80.152 47.0883 80.024 47.579 79.768C48.0697 79.5013 48.4643 79.1067 48.763 78.584C49.0723 78.0507 49.227 77.4 49.227 76.632C49.227 75.864 49.0777 75.2187 48.779 74.696C48.4803 74.1627 48.0857 73.768 47.595 73.512C47.1043 73.2453 46.571 73.112 45.995 73.112C45.419 73.112 44.8857 73.2453 44.395 73.512C43.9043 73.768 43.5097 74.1627 43.211 74.696C42.923 75.2187 42.779 75.864 42.779 76.632C42.779 77.4 42.923 78.0507 43.211 78.584C43.5097 79.1067 43.899 79.5013 44.379 79.768C44.8697 80.024 45.403 80.152 45.979 80.152ZM53.5406 73.816C53.786 73.272 54.1593 72.8507 54.6606 72.552C55.1726 72.2533 55.7966 72.104 56.5326 72.104V73.272H56.2286C55.418 73.272 54.7673 73.4907 54.2766 73.928C53.786 74.3653 53.5406 75.096 53.5406 76.12V81H52.4206V72.264H53.5406V73.816ZM59.6735 73.208V78.632C59.6735 79.1653 59.7748 79.5333 59.9775 79.736C60.1802 79.9387 60.5375 80.04 61.0495 80.04H62.0735V81H60.8735C60.0842 81 59.4975 80.8187 59.1135 80.456C58.7295 80.0827 58.5375 79.4747 58.5375 78.632V73.208H57.3215V72.264H58.5375V70.072H59.6735V72.264H62.0735V73.208H59.6735Z" fill="#00263D"/>
<path d="M30.1053 63V52.9602C16.13 52.2351 5 40.6335 5 26.494C5 11.8805 16.8832 0 31.5 0C46.1168 0 58 11.8805 58 26.494C58 40.2988 48.4042 54.1872 34.0942 61.0757L30.1053 63ZM31.5 5.57769C19.9516 5.57769 10.5789 14.9482 10.5789 26.494C10.5789 38.0398 19.9516 47.4104 31.5 47.4104H35.6842V53.8247C45.8379 47.4104 52.4211 36.8685 52.4211 26.494C52.4211 14.9482 43.0484 5.57769 31.5 5.57769ZM28.7105 37.6494H34.2895V43.2271H28.7105V37.6494ZM34.2895 33.4661H28.7105C28.7105 24.4024 37.0789 25.0996 37.0789 19.5219C37.0789 16.4542 34.5684 13.9442 31.5 13.9442C28.4316 13.9442 25.9211 16.4542 25.9211 19.5219H20.3421C20.3421 13.3586 25.3353 8.36653 31.5 8.36653C37.6647 8.36653 42.6579 13.3586 42.6579 19.5219C42.6579 26.494 34.2895 27.1912 34.2895 33.4661Z" fill="#00263D"/>
</svg>
