<svg width="13" height="15" viewBox="0 0 13 15" fill="none" xmlns="http://www.w3.org/2000/svg">
<path d="M3.92708 1.35H3.79167C3.86615 1.35 3.92708 1.2825 3.92708 1.2V1.35H9.07292V1.2C9.07292 1.2825 9.13385 1.35 9.20833 1.35H9.07292V2.7H10.2917V1.2C10.2917 0.538125 9.80586 0 9.20833 0H3.79167C3.19414 0 2.70833 0.538125 2.70833 1.2V2.7H3.92708V1.35ZM12.4583 2.7H0.541667C0.242057 2.7 0 2.96812 0 3.3V3.9C0 3.9825 0.0609375 4.05 0.135417 4.05H1.15781L1.57591 13.8563C1.60299 14.4956 2.08034 15 2.65755 15H10.3424C10.9214 15 11.397 14.4975 11.4241 13.8563L11.8422 4.05H12.8646C12.9391 4.05 13 3.9825 13 3.9V3.3C13 2.96812 12.7579 2.7 12.4583 2.7ZM10.2121 13.65H2.78789L2.37826 4.05H10.6217L10.2121 13.65Z" fill="#EC2028"/>
</svg>
