<svg width="23" height="20" viewBox="0 0 23 20" fill="none" xmlns="http://www.w3.org/2000/svg">
<path d="M4.28571 2.14286C4.28571 1.57454 4.51148 1.02949 4.91334 0.627628C5.31521 0.225765 5.86025 0 6.42857 0H16.4286C16.9969 0 17.5419 0.225765 17.9438 0.627628C18.3457 1.02949 18.5714 1.57454 18.5714 2.14286V2.85714H19.2857C20.2329 2.85714 21.1413 3.23342 21.8111 3.90319C22.4809 4.57296 22.8571 5.48137 22.8571 6.42857V13.5714C22.8571 14.1397 22.6314 14.6848 22.2295 15.0867C21.8276 15.4885 21.2826 15.7143 20.7143 15.7143H18.5714V17.8571C18.5714 18.4255 18.3457 18.9705 17.9438 19.3724C17.5419 19.7742 16.9969 20 16.4286 20H6.42857C5.86025 20 5.31521 19.7742 4.91334 19.3724C4.51148 18.9705 4.28571 18.4255 4.28571 17.8571V15.7143H2.14286C1.57454 15.7143 1.02949 15.4885 0.627628 15.0867C0.225765 14.6848 0 14.1397 0 13.5714V6.42857C0 5.48137 0.376274 4.57296 1.04605 3.90319C1.71582 3.23342 2.62423 2.85714 3.57143 2.85714H4.28571V2.14286ZM5.71428 2.85714H17.1429V2.14286C17.1429 1.95342 17.0676 1.77174 16.9336 1.63778C16.7997 1.50383 16.618 1.42857 16.4286 1.42857H6.42857C6.23913 1.42857 6.05745 1.50383 5.92349 1.63778C5.78954 1.77174 5.71428 1.95342 5.71428 2.14286V2.85714ZM4.28571 14.2857V12.1429C4.28571 11.5745 4.51148 11.0295 4.91334 10.6276C5.31521 10.2258 5.86025 10 6.42857 10H16.4286C16.9969 10 17.5419 10.2258 17.9438 10.6276C18.3457 11.0295 18.5714 11.5745 18.5714 12.1429V14.2857H20.7143C20.9037 14.2857 21.0854 14.2105 21.2194 14.0765C21.3533 13.9426 21.4286 13.7609 21.4286 13.5714V6.42857C21.4286 5.86025 21.2028 5.31521 20.8009 4.91334C20.3991 4.51148 19.854 4.28571 19.2857 4.28571H3.57143C3.00311 4.28571 2.45806 4.51148 2.0562 4.91334C1.65434 5.31521 1.42857 5.86025 1.42857 6.42857V13.5714C1.42857 13.7609 1.50383 13.9426 1.63778 14.0765C1.77174 14.2105 1.95342 14.2857 2.14286 14.2857H4.28571ZM6.42857 11.4286C6.23913 11.4286 6.05745 11.5038 5.92349 11.6378C5.78954 11.7717 5.71428 11.9534 5.71428 12.1429V17.8571C5.71428 18.0466 5.78954 18.2283 5.92349 18.3622C6.05745 18.4962 6.23913 18.5714 6.42857 18.5714H16.4286C16.618 18.5714 16.7997 18.4962 16.9336 18.3622C17.0676 18.2283 17.1429 18.0466 17.1429 17.8571V12.1429C17.1429 11.9534 17.0676 11.7717 16.9336 11.6378C16.7997 11.5038 16.618 11.4286 16.4286 11.4286H6.42857Z" fill="#7B7171"/>
</svg>
