<svg width="373" height="60" viewBox="0 0 373 60" fill="none" xmlns="http://www.w3.org/2000/svg">
<path opacity="0.8" d="M0 10C0 4.47715 4.47715 0 10 0H363C368.523 0 373 4.47715 373 10V50C373 55.5228 368.523 60 363 60H9.99999C4.47715 60 0 55.5228 0 50V10Z" fill="#777777"/>
<rect x="12" y="18" width="24.5783" height="24" fill="#273B42"/>
<g clip-path="url(#clip0)">
<path d="M13.5898 19.1567V26.6136H21.0467V19.1567H13.5898ZM22.7038 19.1567V20.8138H24.3609V19.1567H22.7038ZM24.3609 20.8138V22.4709H22.7038V25.7851H24.3609V24.128H26.018V20.8138H24.3609ZM24.3609 25.7851V28.2707H16.904V29.9278H15.2469V31.5849H18.5611V29.9278H20.2182V31.5849H24.3609V29.9278H26.018V31.5849H28.5037V29.9278H30.1607V28.2707H26.018V25.7851H24.3609ZM30.1607 29.9278V31.5849H35.132V29.9278H33.4749V28.2707H31.8178V29.9278H30.1607ZM15.2469 29.9278V28.2707H13.5898V29.9278H15.2469ZM27.6751 19.1567V26.6136H35.132V19.1567H27.6751ZM15.2469 20.8138H19.3897V24.9566H15.2469V20.8138ZM29.3322 20.8138H33.4749V24.9566H29.3322V20.8138ZM16.0755 21.6424V24.128H18.5611V21.6424H16.0755ZM30.1607 21.6424V24.128H32.6464V21.6424H30.1607ZM22.7038 32.4135V34.0705H24.3609V32.4135H22.7038ZM24.3609 34.0705V35.7276H22.7038V39.0418H24.3609V37.3847H27.6751V35.7276H29.3322V34.0705H30.9893V35.7276H29.3322V37.3847H27.6751V40.6989H29.3322V39.0418H30.9893V37.3847H31.8178V39.0418H30.9893V40.6989H32.6464V39.0418H33.4749V37.3847H35.132V34.0705H33.4749V32.4135H27.6751V34.0705H24.3609ZM33.4749 39.0418V40.6989H35.132V39.0418H33.4749ZM24.3609 39.0418V40.6989H26.018V39.0418H24.3609ZM13.5898 33.242V40.6989H21.0467V33.242H13.5898ZM15.2469 34.8991H19.3897V39.0418H15.2469V34.8991ZM16.0755 35.7276V38.2133H18.5611V35.7276H16.0755Z" fill="white"/>
</g>
<path d="M53.602 29.114C53.602 28.162 53.8167 27.308 54.246 26.552C54.6753 25.7867 55.2587 25.1893 55.996 24.76C56.7427 24.3307 57.5687 24.116 58.474 24.116C59.538 24.116 60.4667 24.3727 61.26 24.886C62.0533 25.3993 62.632 26.1273 62.996 27.07H61.47C61.1993 26.482 60.8073 26.0293 60.294 25.712C59.79 25.3947 59.1833 25.236 58.474 25.236C57.7927 25.236 57.1813 25.3947 56.64 25.712C56.0987 26.0293 55.674 26.482 55.366 27.07C55.058 27.6487 54.904 28.33 54.904 29.114C54.904 29.8887 55.058 30.57 55.366 31.158C55.674 31.7367 56.0987 32.1847 56.64 32.502C57.1813 32.8193 57.7927 32.978 58.474 32.978C59.1833 32.978 59.79 32.824 60.294 32.516C60.8073 32.1987 61.1993 31.746 61.47 31.158H62.996C62.632 32.0913 62.0533 32.8147 61.26 33.328C60.4667 33.832 59.538 34.084 58.474 34.084C57.5687 34.084 56.7427 33.874 55.996 33.454C55.2587 33.0247 54.6753 32.432 54.246 31.676C53.8167 30.92 53.602 30.066 53.602 29.114ZM66.1665 23.64V34H64.8925V23.64H66.1665ZM68.9958 25.082C68.7531 25.082 68.5478 24.998 68.3798 24.83C68.2118 24.662 68.1278 24.4567 68.1278 24.214C68.1278 23.9713 68.2118 23.766 68.3798 23.598C68.5478 23.43 68.7531 23.346 68.9958 23.346C69.2291 23.346 69.4251 23.43 69.5838 23.598C69.7518 23.766 69.8358 23.9713 69.8358 24.214C69.8358 24.4567 69.7518 24.662 69.5838 24.83C69.4251 24.998 69.2291 25.082 68.9958 25.082ZM69.6118 26.328V34H68.3378V26.328H69.6118ZM71.3071 30.15C71.3071 29.3567 71.4657 28.666 71.7831 28.078C72.1004 27.4807 72.5391 27.0187 73.0991 26.692C73.6684 26.3653 74.3171 26.202 75.0451 26.202C75.9877 26.202 76.7624 26.4307 77.3691 26.888C77.9851 27.3453 78.3911 27.98 78.5871 28.792H77.2151C77.0844 28.3253 76.8277 27.9567 76.4451 27.686C76.0717 27.4153 75.6051 27.28 75.0451 27.28C74.3171 27.28 73.7291 27.532 73.2811 28.036C72.8331 28.5307 72.6091 29.2353 72.6091 30.15C72.6091 31.074 72.8331 31.788 73.2811 32.292C73.7291 32.796 74.3171 33.048 75.0451 33.048C75.6051 33.048 76.0717 32.9173 76.4451 32.656C76.8184 32.3947 77.0751 32.0213 77.2151 31.536H78.5871C78.3817 32.32 77.9711 32.95 77.3551 33.426C76.7391 33.8927 75.9691 34.126 75.0451 34.126C74.3171 34.126 73.6684 33.9627 73.0991 33.636C72.5391 33.3093 72.1004 32.8473 71.7831 32.25C71.4657 31.6527 71.3071 30.9527 71.3071 30.15ZM84.571 34L81.561 30.612V34H80.287V23.64H81.561V29.73L84.515 26.328H86.293L82.681 30.15L86.307 34H84.571ZM95.0325 26.188C95.6112 26.188 96.1338 26.314 96.6005 26.566C97.0672 26.8087 97.4312 27.1773 97.6925 27.672C97.9632 28.1667 98.0985 28.7687 98.0985 29.478V34H96.8385V29.66C96.8385 28.8947 96.6472 28.3113 96.2645 27.91C95.8818 27.4993 95.3592 27.294 94.6965 27.294C94.0245 27.294 93.4878 27.504 93.0865 27.924C92.6945 28.344 92.4985 28.9553 92.4985 29.758V34H91.2245V23.64H92.4985V27.42C92.7505 27.028 93.0958 26.7247 93.5345 26.51C93.9825 26.2953 94.4818 26.188 95.0325 26.188ZM107.18 29.87C107.18 30.1127 107.166 30.3693 107.138 30.64H101.006C101.052 31.396 101.309 31.9887 101.776 32.418C102.252 32.838 102.826 33.048 103.498 33.048C104.048 33.048 104.506 32.922 104.87 32.67C105.243 32.4087 105.504 32.0633 105.654 31.634H107.026C106.82 32.3713 106.41 32.9733 105.794 33.44C105.178 33.8973 104.412 34.126 103.498 34.126C102.77 34.126 102.116 33.9627 101.538 33.636C100.968 33.3093 100.52 32.8473 100.194 32.25C99.8669 31.6433 99.7036 30.9433 99.7036 30.15C99.7036 29.3567 99.8622 28.6613 100.18 28.064C100.497 27.4667 100.94 27.0093 101.51 26.692C102.088 26.3653 102.751 26.202 103.498 26.202C104.226 26.202 104.87 26.3607 105.43 26.678C105.99 26.9953 106.419 27.434 106.718 27.994C107.026 28.5447 107.18 29.17 107.18 29.87ZM105.864 29.604C105.864 29.1187 105.756 28.7033 105.542 28.358C105.327 28.0033 105.033 27.7373 104.66 27.56C104.296 27.3733 103.89 27.28 103.442 27.28C102.798 27.28 102.247 27.4853 101.79 27.896C101.342 28.3067 101.085 28.876 101.02 29.604H105.864ZM110.135 27.574C110.359 27.1353 110.677 26.7947 111.087 26.552C111.507 26.3093 112.016 26.188 112.613 26.188V27.504H112.277C110.849 27.504 110.135 28.2787 110.135 29.828V34H108.861V26.328H110.135V27.574ZM121.084 29.87C121.084 30.1127 121.07 30.3693 121.042 30.64H114.91C114.957 31.396 115.213 31.9887 115.68 32.418C116.156 32.838 116.73 33.048 117.402 33.048C117.953 33.048 118.41 32.922 118.774 32.67C119.147 32.4087 119.409 32.0633 119.558 31.634H120.93C120.725 32.3713 120.314 32.9733 119.698 33.44C119.082 33.8973 118.317 34.126 117.402 34.126C116.674 34.126 116.021 33.9627 115.442 33.636C114.873 33.3093 114.425 32.8473 114.098 32.25C113.771 31.6433 113.608 30.9433 113.608 30.15C113.608 29.3567 113.767 28.6613 114.084 28.064C114.401 27.4667 114.845 27.0093 115.414 26.692C115.993 26.3653 116.655 26.202 117.402 26.202C118.13 26.202 118.774 26.3607 119.334 26.678C119.894 26.9953 120.323 27.434 120.622 27.994C120.93 28.5447 121.084 29.17 121.084 29.87ZM119.768 29.604C119.768 29.1187 119.661 28.7033 119.446 28.358C119.231 28.0033 118.937 27.7373 118.564 27.56C118.2 27.3733 117.794 27.28 117.346 27.28C116.702 27.28 116.151 27.4853 115.694 27.896C115.246 28.3067 114.989 28.876 114.924 29.604H119.768ZM128.052 27.378V31.9C128.052 32.2733 128.131 32.5393 128.29 32.698C128.449 32.8473 128.724 32.922 129.116 32.922H130.054V34H128.906C128.197 34 127.665 33.8367 127.31 33.51C126.955 33.1833 126.778 32.6467 126.778 31.9V27.378H125.784V26.328H126.778V24.396H128.052V26.328H130.054V27.378H128.052ZM134.944 34.126C134.225 34.126 133.572 33.9627 132.984 33.636C132.405 33.3093 131.948 32.8473 131.612 32.25C131.285 31.6433 131.122 30.9433 131.122 30.15C131.122 29.366 131.29 28.6753 131.626 28.078C131.971 27.4713 132.438 27.0093 133.026 26.692C133.614 26.3653 134.272 26.202 135 26.202C135.728 26.202 136.386 26.3653 136.974 26.692C137.562 27.0093 138.024 27.4667 138.36 28.064C138.705 28.6613 138.878 29.3567 138.878 30.15C138.878 30.9433 138.7 31.6433 138.346 32.25C138 32.8473 137.529 33.3093 136.932 33.636C136.334 33.9627 135.672 34.126 134.944 34.126ZM134.944 33.006C135.401 33.006 135.83 32.8987 136.232 32.684C136.633 32.4693 136.955 32.1473 137.198 31.718C137.45 31.2887 137.576 30.766 137.576 30.15C137.576 29.534 137.454 29.0113 137.212 28.582C136.969 28.1527 136.652 27.8353 136.26 27.63C135.868 27.4153 135.443 27.308 134.986 27.308C134.519 27.308 134.09 27.4153 133.698 27.63C133.315 27.8353 133.007 28.1527 132.774 28.582C132.54 29.0113 132.424 29.534 132.424 30.15C132.424 30.7753 132.536 31.3027 132.76 31.732C132.993 32.1613 133.301 32.4833 133.684 32.698C134.066 32.9033 134.486 33.006 134.944 33.006ZM147.001 34.126C146.413 34.126 145.886 34.028 145.419 33.832C144.952 33.6267 144.584 33.3467 144.313 32.992C144.042 32.628 143.893 32.2127 143.865 31.746H145.181C145.218 32.1287 145.396 32.4413 145.713 32.684C146.04 32.9267 146.464 33.048 146.987 33.048C147.472 33.048 147.855 32.9407 148.135 32.726C148.415 32.5113 148.555 32.2407 148.555 31.914C148.555 31.578 148.406 31.3307 148.107 31.172C147.808 31.004 147.346 30.8407 146.721 30.682C146.152 30.5327 145.685 30.3833 145.321 30.234C144.966 30.0753 144.658 29.8467 144.397 29.548C144.145 29.24 144.019 28.8387 144.019 28.344C144.019 27.952 144.136 27.5927 144.369 27.266C144.602 26.9393 144.934 26.6827 145.363 26.496C145.792 26.3 146.282 26.202 146.833 26.202C147.682 26.202 148.368 26.4167 148.891 26.846C149.414 27.2753 149.694 27.8633 149.731 28.61H148.457C148.429 28.2087 148.266 27.8867 147.967 27.644C147.678 27.4013 147.286 27.28 146.791 27.28C146.334 27.28 145.97 27.378 145.699 27.574C145.428 27.77 145.293 28.0267 145.293 28.344C145.293 28.596 145.372 28.806 145.531 28.974C145.699 29.1327 145.904 29.2633 146.147 29.366C146.399 29.4593 146.744 29.5667 147.183 29.688C147.734 29.8373 148.182 29.9867 148.527 30.136C148.872 30.276 149.166 30.4907 149.409 30.78C149.661 31.0693 149.792 31.4473 149.801 31.914C149.801 32.334 149.684 32.712 149.451 33.048C149.218 33.384 148.886 33.65 148.457 33.846C148.037 34.0327 147.552 34.126 147.001 34.126ZM158.599 29.87C158.599 30.1127 158.585 30.3693 158.557 30.64H152.425C152.472 31.396 152.729 31.9887 153.195 32.418C153.671 32.838 154.245 33.048 154.917 33.048C155.468 33.048 155.925 32.922 156.289 32.67C156.663 32.4087 156.924 32.0633 157.073 31.634H158.445C158.24 32.3713 157.829 32.9733 157.213 33.44C156.597 33.8973 155.832 34.126 154.917 34.126C154.189 34.126 153.536 33.9627 152.957 33.636C152.388 33.3093 151.94 32.8473 151.613 32.25C151.287 31.6433 151.123 30.9433 151.123 30.15C151.123 29.3567 151.282 28.6613 151.599 28.064C151.917 27.4667 152.36 27.0093 152.929 26.692C153.508 26.3653 154.171 26.202 154.917 26.202C155.645 26.202 156.289 26.3607 156.849 26.678C157.409 26.9953 157.839 27.434 158.137 27.994C158.445 28.5447 158.599 29.17 158.599 29.87ZM157.283 29.604C157.283 29.1187 157.176 28.7033 156.961 28.358C156.747 28.0033 156.453 27.7373 156.079 27.56C155.715 27.3733 155.309 27.28 154.861 27.28C154.217 27.28 153.667 27.4853 153.209 27.896C152.761 28.3067 152.505 28.876 152.439 29.604H157.283ZM161.555 23.64V34H160.281V23.64H161.555ZM170.726 29.87C170.726 30.1127 170.712 30.3693 170.684 30.64H164.552C164.599 31.396 164.856 31.9887 165.322 32.418C165.798 32.838 166.372 33.048 167.044 33.048C167.595 33.048 168.052 32.922 168.416 32.67C168.79 32.4087 169.051 32.0633 169.2 31.634H170.572C170.367 32.3713 169.956 32.9733 169.34 33.44C168.724 33.8973 167.959 34.126 167.044 34.126C166.316 34.126 165.663 33.9627 165.084 33.636C164.515 33.3093 164.067 32.8473 163.74 32.25C163.414 31.6433 163.25 30.9433 163.25 30.15C163.25 29.3567 163.409 28.6613 163.726 28.064C164.044 27.4667 164.487 27.0093 165.056 26.692C165.635 26.3653 166.298 26.202 167.044 26.202C167.772 26.202 168.416 26.3607 168.976 26.678C169.536 26.9953 169.966 27.434 170.264 27.994C170.572 28.5447 170.726 29.17 170.726 29.87ZM169.41 29.604C169.41 29.1187 169.303 28.7033 169.088 28.358C168.874 28.0033 168.58 27.7373 168.206 27.56C167.842 27.3733 167.436 27.28 166.988 27.28C166.344 27.28 165.794 27.4853 165.336 27.896C164.888 28.3067 164.632 28.876 164.566 29.604H169.41ZM171.932 30.15C171.932 29.3567 172.091 28.666 172.408 28.078C172.725 27.4807 173.164 27.0187 173.724 26.692C174.293 26.3653 174.942 26.202 175.67 26.202C176.613 26.202 177.387 26.4307 177.994 26.888C178.61 27.3453 179.016 27.98 179.212 28.792H177.84C177.709 28.3253 177.453 27.9567 177.07 27.686C176.697 27.4153 176.23 27.28 175.67 27.28C174.942 27.28 174.354 27.532 173.906 28.036C173.458 28.5307 173.234 29.2353 173.234 30.15C173.234 31.074 173.458 31.788 173.906 32.292C174.354 32.796 174.942 33.048 175.67 33.048C176.23 33.048 176.697 32.9173 177.07 32.656C177.443 32.3947 177.7 32.0213 177.84 31.536H179.212C179.007 32.32 178.596 32.95 177.98 33.426C177.364 33.8927 176.594 34.126 175.67 34.126C174.942 34.126 174.293 33.9627 173.724 33.636C173.164 33.3093 172.725 32.8473 172.408 32.25C172.091 31.6527 171.932 30.9527 171.932 30.15ZM182.466 27.378V31.9C182.466 32.2733 182.545 32.5393 182.704 32.698C182.863 32.8473 183.138 32.922 183.53 32.922H184.468V34H183.32C182.611 34 182.079 33.8367 181.724 33.51C181.369 33.1833 181.192 32.6467 181.192 31.9V27.378H180.198V26.328H181.192V24.396H182.466V26.328H184.468V27.378H182.466ZM192.46 34.126C191.872 34.126 191.345 34.028 190.878 33.832C190.411 33.6267 190.043 33.3467 189.772 32.992C189.501 32.628 189.352 32.2127 189.324 31.746H190.64C190.677 32.1287 190.855 32.4413 191.172 32.684C191.499 32.9267 191.923 33.048 192.446 33.048C192.931 33.048 193.314 32.9407 193.594 32.726C193.874 32.5113 194.014 32.2407 194.014 31.914C194.014 31.578 193.865 31.3307 193.566 31.172C193.267 31.004 192.805 30.8407 192.18 30.682C191.611 30.5327 191.144 30.3833 190.78 30.234C190.425 30.0753 190.117 29.8467 189.856 29.548C189.604 29.24 189.478 28.8387 189.478 28.344C189.478 27.952 189.595 27.5927 189.828 27.266C190.061 26.9393 190.393 26.6827 190.822 26.496C191.251 26.3 191.741 26.202 192.292 26.202C193.141 26.202 193.827 26.4167 194.35 26.846C194.873 27.2753 195.153 27.8633 195.19 28.61H193.916C193.888 28.2087 193.725 27.8867 193.426 27.644C193.137 27.4013 192.745 27.28 192.25 27.28C191.793 27.28 191.429 27.378 191.158 27.574C190.887 27.77 190.752 28.0267 190.752 28.344C190.752 28.596 190.831 28.806 190.99 28.974C191.158 29.1327 191.363 29.2633 191.606 29.366C191.858 29.4593 192.203 29.5667 192.642 29.688C193.193 29.8373 193.641 29.9867 193.986 30.136C194.331 30.276 194.625 30.4907 194.868 30.78C195.12 31.0693 195.251 31.4473 195.26 31.914C195.26 32.334 195.143 32.712 194.91 33.048C194.677 33.384 194.345 33.65 193.916 33.846C193.496 34.0327 193.011 34.126 192.46 34.126ZM197.716 25.082C197.474 25.082 197.268 24.998 197.1 24.83C196.932 24.662 196.848 24.4567 196.848 24.214C196.848 23.9713 196.932 23.766 197.1 23.598C197.268 23.43 197.474 23.346 197.716 23.346C197.95 23.346 198.146 23.43 198.304 23.598C198.472 23.766 198.556 23.9713 198.556 24.214C198.556 24.4567 198.472 24.662 198.304 24.83C198.146 24.998 197.95 25.082 197.716 25.082ZM198.332 26.328V34H197.058V26.328H198.332ZM201.456 32.95H205.222V34H200V32.95L203.724 27.364H200.028V26.328H205.194V27.364L201.456 32.95ZM213.875 29.87C213.875 30.1127 213.861 30.3693 213.833 30.64H207.701C207.748 31.396 208.004 31.9887 208.471 32.418C208.947 32.838 209.521 33.048 210.193 33.048C210.744 33.048 211.201 32.922 211.565 32.67C211.938 32.4087 212.2 32.0633 212.349 31.634H213.721C213.516 32.3713 213.105 32.9733 212.489 33.44C211.873 33.8973 211.108 34.126 210.193 34.126C209.465 34.126 208.812 33.9627 208.233 33.636C207.664 33.3093 207.216 32.8473 206.889 32.25C206.562 31.6433 206.399 30.9433 206.399 30.15C206.399 29.3567 206.558 28.6613 206.875 28.064C207.192 27.4667 207.636 27.0093 208.205 26.692C208.784 26.3653 209.446 26.202 210.193 26.202C210.921 26.202 211.565 26.3607 212.125 26.678C212.685 26.9953 213.114 27.434 213.413 27.994C213.721 28.5447 213.875 29.17 213.875 29.87ZM212.559 29.604C212.559 29.1187 212.452 28.7033 212.237 28.358C212.022 28.0033 211.728 27.7373 211.355 27.56C210.991 27.3733 210.585 27.28 210.137 27.28C209.493 27.28 208.942 27.4853 208.485 27.896C208.037 28.3067 207.78 28.876 207.715 29.604H212.559ZM222.635 34.126C221.916 34.126 221.263 33.9627 220.675 33.636C220.096 33.3093 219.639 32.8473 219.303 32.25C218.976 31.6433 218.813 30.9433 218.813 30.15C218.813 29.366 218.981 28.6753 219.317 28.078C219.662 27.4713 220.129 27.0093 220.717 26.692C221.305 26.3653 221.963 26.202 222.691 26.202C223.419 26.202 224.077 26.3653 224.665 26.692C225.253 27.0093 225.715 27.4667 226.051 28.064C226.396 28.6613 226.569 29.3567 226.569 30.15C226.569 30.9433 226.392 31.6433 226.037 32.25C225.692 32.8473 225.22 33.3093 224.623 33.636C224.026 33.9627 223.363 34.126 222.635 34.126ZM222.635 33.006C223.092 33.006 223.522 32.8987 223.923 32.684C224.324 32.4693 224.646 32.1473 224.889 31.718C225.141 31.2887 225.267 30.766 225.267 30.15C225.267 29.534 225.146 29.0113 224.903 28.582C224.66 28.1527 224.343 27.8353 223.951 27.63C223.559 27.4153 223.134 27.308 222.677 27.308C222.21 27.308 221.781 27.4153 221.389 27.63C221.006 27.8353 220.698 28.1527 220.465 28.582C220.232 29.0113 220.115 29.534 220.115 30.15C220.115 30.7753 220.227 31.3027 220.451 31.732C220.684 32.1613 220.992 32.4833 221.375 32.698C221.758 32.9033 222.178 33.006 222.635 33.006ZM231.366 27.378H229.756V34H228.482V27.378H227.488V26.328H228.482V25.782C228.482 24.9233 228.701 24.298 229.14 23.906C229.588 23.5047 230.302 23.304 231.282 23.304V24.368C230.722 24.368 230.325 24.48 230.092 24.704C229.868 24.9187 229.756 25.278 229.756 25.782V26.328H231.366V27.378ZM236.108 30.136C236.108 29.352 236.267 28.666 236.584 28.078C236.901 27.4807 237.335 27.0187 237.886 26.692C238.446 26.3653 239.071 26.202 239.762 26.202C240.359 26.202 240.915 26.342 241.428 26.622C241.941 26.8927 242.333 27.252 242.604 27.7V23.64H243.892V34H242.604V32.558C242.352 33.0153 241.979 33.3933 241.484 33.692C240.989 33.9813 240.411 34.126 239.748 34.126C239.067 34.126 238.446 33.958 237.886 33.622C237.335 33.286 236.901 32.8147 236.584 32.208C236.267 31.6013 236.108 30.9107 236.108 30.136ZM242.604 30.15C242.604 29.5713 242.487 29.0673 242.254 28.638C242.021 28.2087 241.703 27.882 241.302 27.658C240.91 27.4247 240.476 27.308 240 27.308C239.524 27.308 239.09 27.42 238.698 27.644C238.306 27.868 237.993 28.1947 237.76 28.624C237.527 29.0533 237.41 29.5573 237.41 30.136C237.41 30.724 237.527 31.2373 237.76 31.676C237.993 32.1053 238.306 32.4367 238.698 32.67C239.09 32.894 239.524 33.006 240 33.006C240.476 33.006 240.91 32.894 241.302 32.67C241.703 32.4367 242.021 32.1053 242.254 31.676C242.487 31.2373 242.604 30.7287 242.604 30.15ZM253.045 29.87C253.045 30.1127 253.031 30.3693 253.003 30.64H246.871C246.917 31.396 247.174 31.9887 247.641 32.418C248.117 32.838 248.691 33.048 249.363 33.048C249.913 33.048 250.371 32.922 250.735 32.67C251.108 32.4087 251.369 32.0633 251.519 31.634H252.891C252.685 32.3713 252.275 32.9733 251.659 33.44C251.043 33.8973 250.277 34.126 249.363 34.126C248.635 34.126 247.981 33.9627 247.403 33.636C246.833 33.3093 246.385 32.8473 246.059 32.25C245.732 31.6433 245.569 30.9433 245.569 30.15C245.569 29.3567 245.727 28.6613 246.045 28.064C246.362 27.4667 246.805 27.0093 247.375 26.692C247.953 26.3653 248.616 26.202 249.363 26.202C250.091 26.202 250.735 26.3607 251.295 26.678C251.855 26.9953 252.284 27.434 252.583 27.994C252.891 28.5447 253.045 29.17 253.045 29.87ZM251.729 29.604C251.729 29.1187 251.621 28.7033 251.407 28.358C251.192 28.0033 250.898 27.7373 250.525 27.56C250.161 27.3733 249.755 27.28 249.307 27.28C248.663 27.28 248.112 27.4853 247.655 27.896C247.207 28.3067 246.95 28.876 246.885 29.604H251.729ZM256 27.742C256.252 27.3033 256.626 26.9393 257.12 26.65C257.624 26.3513 258.208 26.202 258.87 26.202C259.552 26.202 260.168 26.3653 260.718 26.692C261.278 27.0187 261.717 27.4807 262.034 28.078C262.352 28.666 262.51 29.352 262.51 30.136C262.51 30.9107 262.352 31.6013 262.034 32.208C261.717 32.8147 261.278 33.286 260.718 33.622C260.168 33.958 259.552 34.126 258.87 34.126C258.217 34.126 257.638 33.9813 257.134 33.692C256.64 33.3933 256.262 33.0247 256 32.586V37.64H254.726V26.328H256V27.742ZM261.208 30.136C261.208 29.5573 261.092 29.0533 260.858 28.624C260.625 28.1947 260.308 27.868 259.906 27.644C259.514 27.42 259.08 27.308 258.604 27.308C258.138 27.308 257.704 27.4247 257.302 27.658C256.91 27.882 256.593 28.2133 256.35 28.652C256.117 29.0813 256 29.5807 256 30.15C256 30.7287 256.117 31.2373 256.35 31.676C256.593 32.1053 256.91 32.4367 257.302 32.67C257.704 32.894 258.138 33.006 258.604 33.006C259.08 33.006 259.514 32.894 259.906 32.67C260.308 32.4367 260.625 32.1053 260.858 31.676C261.092 31.2373 261.208 30.724 261.208 30.136ZM267.533 34.126C266.815 34.126 266.161 33.9627 265.573 33.636C264.995 33.3093 264.537 32.8473 264.201 32.25C263.875 31.6433 263.711 30.9433 263.711 30.15C263.711 29.366 263.879 28.6753 264.215 28.078C264.561 27.4713 265.027 27.0093 265.615 26.692C266.203 26.3653 266.861 26.202 267.589 26.202C268.317 26.202 268.975 26.3653 269.563 26.692C270.151 27.0093 270.613 27.4667 270.949 28.064C271.295 28.6613 271.467 29.3567 271.467 30.15C271.467 30.9433 271.29 31.6433 270.935 32.25C270.59 32.8473 270.119 33.3093 269.521 33.636C268.924 33.9627 268.261 34.126 267.533 34.126ZM267.533 33.006C267.991 33.006 268.42 32.8987 268.821 32.684C269.223 32.4693 269.545 32.1473 269.787 31.718C270.039 31.2887 270.165 30.766 270.165 30.15C270.165 29.534 270.044 29.0113 269.801 28.582C269.559 28.1527 269.241 27.8353 268.849 27.63C268.457 27.4153 268.033 27.308 267.575 27.308C267.109 27.308 266.679 27.4153 266.287 27.63C265.905 27.8353 265.597 28.1527 265.363 28.582C265.13 29.0113 265.013 29.534 265.013 30.15C265.013 30.7753 265.125 31.3027 265.349 31.732C265.583 32.1613 265.891 32.4833 266.273 32.698C266.656 32.9033 267.076 33.006 267.533 33.006ZM275.858 34.126C275.27 34.126 274.743 34.028 274.276 33.832C273.81 33.6267 273.441 33.3467 273.17 32.992C272.9 32.628 272.75 32.2127 272.722 31.746H274.038C274.076 32.1287 274.253 32.4413 274.57 32.684C274.897 32.9267 275.322 33.048 275.844 33.048C276.33 33.048 276.712 32.9407 276.992 32.726C277.272 32.5113 277.412 32.2407 277.412 31.914C277.412 31.578 277.263 31.3307 276.964 31.172C276.666 31.004 276.204 30.8407 275.578 30.682C275.009 30.5327 274.542 30.3833 274.178 30.234C273.824 30.0753 273.516 29.8467 273.254 29.548C273.002 29.24 272.876 28.8387 272.876 28.344C272.876 27.952 272.993 27.5927 273.226 27.266C273.46 26.9393 273.791 26.6827 274.22 26.496C274.65 26.3 275.14 26.202 275.69 26.202C276.54 26.202 277.226 26.4167 277.748 26.846C278.271 27.2753 278.551 27.8633 278.588 28.61H277.314C277.286 28.2087 277.123 27.8867 276.824 27.644C276.535 27.4013 276.143 27.28 275.648 27.28C275.191 27.28 274.827 27.378 274.556 27.574C274.286 27.77 274.15 28.0267 274.15 28.344C274.15 28.596 274.23 28.806 274.388 28.974C274.556 29.1327 274.762 29.2633 275.004 29.366C275.256 29.4593 275.602 29.5667 276.04 29.688C276.591 29.8373 277.039 29.9867 277.384 30.136C277.73 30.276 278.024 30.4907 278.266 30.78C278.518 31.0693 278.649 31.4473 278.658 31.914C278.658 32.334 278.542 32.712 278.308 33.048C278.075 33.384 277.744 33.65 277.314 33.846C276.894 34.0327 276.409 34.126 275.858 34.126ZM281.115 25.082C280.872 25.082 280.667 24.998 280.499 24.83C280.331 24.662 280.247 24.4567 280.247 24.214C280.247 23.9713 280.331 23.766 280.499 23.598C280.667 23.43 280.872 23.346 281.115 23.346C281.348 23.346 281.544 23.43 281.703 23.598C281.871 23.766 281.955 23.9713 281.955 24.214C281.955 24.4567 281.871 24.662 281.703 24.83C281.544 24.998 281.348 25.082 281.115 25.082ZM281.731 26.328V34H280.457V26.328H281.731ZM285.456 27.378V31.9C285.456 32.2733 285.536 32.5393 285.694 32.698C285.853 32.8473 286.128 32.922 286.52 32.922H287.458V34H286.31C285.601 34 285.069 33.8367 284.714 33.51C284.36 33.1833 284.182 32.6467 284.182 31.9V27.378H283.188V26.328H284.182V24.396H285.456V26.328H287.458V27.378H285.456ZM292.258 30.15C292.258 29.3567 292.417 28.666 292.734 28.078C293.052 27.4807 293.49 27.0187 294.05 26.692C294.62 26.3653 295.268 26.202 295.996 26.202C296.939 26.202 297.714 26.4307 298.32 26.888C298.936 27.3453 299.342 27.98 299.538 28.792H298.166C298.036 28.3253 297.779 27.9567 297.396 27.686C297.023 27.4153 296.556 27.28 295.996 27.28C295.268 27.28 294.68 27.532 294.232 28.036C293.784 28.5307 293.56 29.2353 293.56 30.15C293.56 31.074 293.784 31.788 294.232 32.292C294.68 32.796 295.268 33.048 295.996 33.048C296.556 33.048 297.023 32.9173 297.396 32.656C297.77 32.3947 298.026 32.0213 298.166 31.536H299.538C299.333 32.32 298.922 32.95 298.306 33.426C297.69 33.8927 296.92 34.126 295.996 34.126C295.268 34.126 294.62 33.9627 294.05 33.636C293.49 33.3093 293.052 32.8473 292.734 32.25C292.417 31.6527 292.258 30.9527 292.258 30.15ZM307.846 26.328L303.226 37.612H301.91L303.422 33.916L300.328 26.328H301.742L304.15 32.544L306.53 26.328H307.846ZM310.401 23.64V34H309.127V23.64H310.401ZM313.23 25.082C312.987 25.082 312.782 24.998 312.614 24.83C312.446 24.662 312.362 24.4567 312.362 24.214C312.362 23.9713 312.446 23.766 312.614 23.598C312.782 23.43 312.987 23.346 313.23 23.346C313.463 23.346 313.659 23.43 313.818 23.598C313.986 23.766 314.07 23.9713 314.07 24.214C314.07 24.4567 313.986 24.662 313.818 24.83C313.659 24.998 313.463 25.082 313.23 25.082ZM313.846 26.328V34H312.572V26.328H313.846ZM319.755 26.188C320.689 26.188 321.445 26.4727 322.023 27.042C322.602 27.602 322.891 28.414 322.891 29.478V34H321.631V29.66C321.631 28.8947 321.44 28.3113 321.057 27.91C320.675 27.4993 320.152 27.294 319.489 27.294C318.817 27.294 318.281 27.504 317.879 27.924C317.487 28.344 317.291 28.9553 317.291 29.758V34H316.017V26.328H317.291V27.42C317.543 27.028 317.884 26.7247 318.313 26.51C318.752 26.2953 319.233 26.188 319.755 26.188ZM324.497 30.136C324.497 29.352 324.655 28.666 324.973 28.078C325.29 27.4807 325.724 27.0187 326.275 26.692C326.835 26.3653 327.46 26.202 328.151 26.202C328.748 26.202 329.303 26.342 329.817 26.622C330.33 26.8927 330.722 27.252 330.993 27.7V23.64H332.281V34H330.993V32.558C330.741 33.0153 330.367 33.3933 329.873 33.692C329.378 33.9813 328.799 34.126 328.137 34.126C327.455 34.126 326.835 33.958 326.275 33.622C325.724 33.286 325.29 32.8147 324.973 32.208C324.655 31.6013 324.497 30.9107 324.497 30.136ZM330.993 30.15C330.993 29.5713 330.876 29.0673 330.643 28.638C330.409 28.2087 330.092 27.882 329.691 27.658C329.299 27.4247 328.865 27.308 328.389 27.308C327.913 27.308 327.479 27.42 327.087 27.644C326.695 27.868 326.382 28.1947 326.149 28.624C325.915 29.0533 325.799 29.5573 325.799 30.136C325.799 30.724 325.915 31.2373 326.149 31.676C326.382 32.1053 326.695 32.4367 327.087 32.67C327.479 32.894 327.913 33.006 328.389 33.006C328.865 33.006 329.299 32.894 329.691 32.67C330.092 32.4367 330.409 32.1053 330.643 31.676C330.876 31.2373 330.993 30.7287 330.993 30.15ZM341.433 29.87C341.433 30.1127 341.419 30.3693 341.391 30.64H335.259C335.306 31.396 335.563 31.9887 336.029 32.418C336.505 32.838 337.079 33.048 337.751 33.048C338.302 33.048 338.759 32.922 339.123 32.67C339.497 32.4087 339.758 32.0633 339.907 31.634H341.279C341.074 32.3713 340.663 32.9733 340.047 33.44C339.431 33.8973 338.666 34.126 337.751 34.126C337.023 34.126 336.37 33.9627 335.791 33.636C335.222 33.3093 334.774 32.8473 334.447 32.25C334.121 31.6433 333.957 30.9433 333.957 30.15C333.957 29.3567 334.116 28.6613 334.433 28.064C334.751 27.4667 335.194 27.0093 335.763 26.692C336.342 26.3653 337.005 26.202 337.751 26.202C338.479 26.202 339.123 26.3607 339.683 26.678C340.243 26.9953 340.673 27.434 340.971 27.994C341.279 28.5447 341.433 29.17 341.433 29.87ZM340.117 29.604C340.117 29.1187 340.01 28.7033 339.795 28.358C339.581 28.0033 339.287 27.7373 338.913 27.56C338.549 27.3733 338.143 27.28 337.695 27.28C337.051 27.28 336.501 27.4853 336.043 27.896C335.595 28.3067 335.339 28.876 335.273 29.604H340.117ZM344.389 27.574C344.613 27.1353 344.93 26.7947 345.341 26.552C345.761 26.3093 346.27 26.188 346.867 26.188V27.504H346.531C345.103 27.504 344.389 28.2787 344.389 29.828V34H343.115V26.328H344.389V27.574Z" fill="#DADADA"/>
<defs>
<clipPath id="clip0">
<rect width="21.5422" height="21.5422" fill="white" transform="translate(13.5898 19.1567)"/>
</clipPath>
</defs>
</svg>
